<svg xmlns="http://www.w3.org/2000/svg" data-name="Layer 2" viewBox="0 0 82.47 96.4375" x="0px" y="0px"><g data-name="Layer 1"><path d="M80.41,1.73c-1.26-1.17-2.91-1.78-4.6-1.72H25.39c-1.71-.06-3.36,.55-4.62,1.72-1.26,1.17-1.99,2.76-2.06,4.5v7.33H4.2c-1.07-.04-2.11,.34-2.9,1.06-.79,.72-1.25,1.7-1.29,2.78V59.77c.04,1.06,.5,2.04,1.29,2.76,.76,.69,1.73,1.06,2.75,1.06,.05,0,.1,0,.14,0h14.52v7.35c.07,1.72,.8,3.31,2.06,4.48,1.2,1.12,2.75,1.73,4.37,1.73,.08,0,.15,0,.23,0h50.41c1.71,.06,3.36-.55,4.62-1.72,1.26-1.17,1.99-2.76,2.06-4.5V6.21c-.07-1.72-.8-3.31-2.06-4.48ZM14.28,48.79l-3.54-3.54,6.68-6.68-6.68-6.68,3.54-3.54,6.68,6.68,6.68-6.68,3.54,3.54-6.68,6.68,6.68,6.68-3.54,3.54-6.68-6.68-6.68,6.68Zm61.52,23.24H25.33c-.74,.07-1.4-.45-1.51-1.11v-7.33s13.9,0,13.9,0c1.07,.04,2.11-.34,2.9-1.06,.79-.72,1.25-1.7,1.29-2.78v-6.82h21.67c1.38,0,2.5-1.12,2.5-2.5s-1.12-2.5-2.5-2.5h-21.67v-6.72h21.67c1.38,0,2.5-1.12,2.5-2.5s-1.12-2.5-2.5-2.5h-21.67v-6.72h21.67c1.38,0,2.5-1.12,2.5-2.5s-1.12-2.5-2.5-2.5h-21.67v-7.08c-.04-1.06-.5-2.04-1.29-2.76-.79-.72-1.83-1.1-2.89-1.06h-13.92V6.3c.1-.69,.7-1.19,1.42-1.19,.05,0,.09,0,.14,0h50.47c.75-.07,1.41,.45,1.51,1.11V70.85c-.1,.73-.77,1.25-1.55,1.19Z"/></g></svg>