<svg width="128" height="180" xmlns="http://www.w3.org/2000/svg" data-name="Layer 2">
 <g>
  <title>Слой 1</title>
  <g data-name="Layer 1" id="svg_1" stroke="null">
   <path d="m119.80478,33.08858c-1.79487,-1.80696 -4.14529,-2.74905 -6.5527,-2.65638l-71.82327,0c-2.43589,-0.09266 -4.78632,0.84942 -6.58119,2.65638c-1.79487,1.80696 -2.83475,4.26256 -2.93447,6.94983l0,11.32051l-20.66949,0c-1.52421,-0.06178 -3.00569,0.5251 -4.13105,1.63707c-1.12535,1.11197 -1.78062,2.62549 -1.8376,4.29345l0,65.43655c0.05698,1.63707 0.71225,3.15059 1.8376,4.26256c1.08262,1.06564 2.46438,1.63707 3.91737,1.63707c0.07122,0 0.14245,0 0.19943,0l20.68374,0l0,11.3514c0.09971,2.65638 1.1396,5.11199 2.93447,6.91895c1.7094,1.72974 3.91737,2.67183 6.22506,2.67183c0.11396,0 0.21367,0 0.32763,0l71.80903,0c2.43589,0.09266 4.78632,-0.84942 6.58119,-2.65638c1.79487,-1.80696 2.83475,-4.26256 2.93447,-6.94983l0,-99.95406c-0.09971,-2.65638 -1.1396,-5.11199 -2.93447,-6.91895l0.01424,0l0.00001,0zm-94.20217,72.67982l-5.04273,-5.4672l9.51566,-10.31664l-9.51566,-10.31664l5.04273,-5.4672l9.51566,10.31664l9.51566,-10.31664l5.04273,5.4672l-9.51566,10.31664l9.51566,10.31664l-5.04273,5.4672l-9.51566,-10.31664l-9.51566,10.31664zm87.63522,35.89203l-71.8945,0c-1.05413,0.10811 -1.9943,-0.69498 -2.15099,-1.71429l0,-11.32051s19.80055,0 19.80055,0c1.52421,0.06178 3.00569,-0.5251 4.13105,-1.63707c1.12535,-1.11197 1.78062,-2.62549 1.8376,-4.29345l0,-10.53286l30.86891,0c1.96581,0 3.56125,-1.72974 3.56125,-3.86102s-1.59544,-3.86102 -3.56125,-3.86102l-30.86891,0l0,-10.37842l30.86891,0c1.96581,0 3.56125,-1.72974 3.56125,-3.86102s-1.59544,-3.86102 -3.56125,-3.86102l-30.86891,0l0,-10.37842l30.86891,0c1.96581,0 3.56125,-1.72974 3.56125,-3.86102s-1.59544,-3.86102 -3.56125,-3.86102l-30.86891,0l0,-10.93441c-0.05698,-1.63707 -0.71225,-3.15059 -1.8376,-4.26256c-1.12535,-1.11197 -2.60683,-1.69885 -4.1168,-1.63707l-19.82904,0l0,-11.25873c0.14245,-1.06564 0.99715,-1.83784 2.02279,-1.83784c0.07122,0 0.1282,0 0.19943,0l71.8945,0c1.06837,-0.10811 2.00854,0.69498 2.15099,1.71429l0,99.81506c-0.14245,1.12742 -1.09686,1.93051 -2.20797,1.83784l0,-0.01544l-0.00001,0z" id="svg_2" stroke="null"/>
  </g>
 </g>

</svg>