<?xml version="1.0" encoding="UTF-8"?> <svg xmlns="http://www.w3.org/2000/svg" width="130" height="130" viewBox="0 0 130 130" fill="none"><path d="M108.333 54.1667C105.46 54.1667 102.705 55.3081 100.673 57.3397C98.6414 59.3714 97.5 62.1269 97.5 65C97.5 67.8732 98.6414 70.6287 100.673 72.6604C102.705 74.692 105.46 75.8334 108.333 75.8334C111.207 75.8334 113.962 74.692 115.994 72.6604C118.025 70.6287 119.167 67.8732 119.167 65C119.167 62.1269 118.025 59.3714 115.994 57.3397C113.962 55.3081 111.207 54.1667 108.333 54.1667Z" fill="currentColor" stroke="currentColor" stroke-width="6" stroke-linecap="round" stroke-linejoin="round"></path><path d="M21.6667 54.1667C18.7935 54.1667 16.038 55.3081 14.0064 57.3397C11.9747 59.3714 10.8334 62.1269 10.8334 65C10.8334 67.8732 11.9747 70.6287 14.0064 72.6604C16.038 74.692 18.7935 75.8334 21.6667 75.8334C24.5399 75.8334 27.2954 74.692 29.327 72.6604C31.3587 70.6287 32.5 67.8732 32.5 65C32.5 62.1269 31.3587 59.3714 29.327 57.3397C27.2954 55.3081 24.5399 54.1667 21.6667 54.1667Z" fill="currentColor" stroke="currentColor" stroke-width="6" stroke-linecap="round" stroke-linejoin="round"></path><path d="M65 97.5C62.1268 97.5 59.3713 98.6413 57.3396 100.673C55.308 102.705 54.1666 105.46 54.1666 108.333C54.1666 111.206 55.308 113.962 57.3396 115.994C59.3713 118.025 62.1268 119.167 65 119.167C67.8731 119.167 70.6286 118.025 72.6603 115.994C74.6919 113.962 75.8333 111.206 75.8333 108.333C75.8333 105.46 74.6919 102.705 72.6603 100.673C70.6286 98.6413 67.8731 97.5 65 97.5Z" fill="currentColor" stroke="currentColor" stroke-width="6" stroke-linecap="round" stroke-linejoin="round"></path><path d="M65 10.8333C62.1268 10.8333 59.3713 11.9747 57.3396 14.0063C55.308 16.038 54.1666 18.7935 54.1666 21.6667C54.1666 24.5398 55.308 27.2953 57.3396 29.327C59.3713 31.3586 62.1268 32.5 65 32.5C67.8731 32.5 70.6286 31.3586 72.6603 29.327C74.6919 27.2953 75.8333 24.5398 75.8333 21.6667C75.8333 18.7935 74.6919 16.038 72.6603 14.0063C70.6286 11.9747 67.8731 10.8333 65 10.8333Z" fill="currentColor" stroke="currentColor" stroke-width="6" stroke-linecap="round" stroke-linejoin="round"></path><path d="M65 54.1667C62.1268 54.1667 59.3713 55.3081 57.3396 57.3397C55.308 59.3714 54.1666 62.1269 54.1666 65C54.1666 67.8732 55.308 70.6287 57.3396 72.6604C59.3713 74.692 62.1268 75.8334 65 75.8334C67.8731 75.8334 70.6286 74.692 72.6603 72.6604C74.6919 70.6287 75.8333 67.8732 75.8333 65C75.8333 62.1269 74.6919 59.3714 72.6603 57.3397C70.6286 55.3081 67.8731 54.1667 65 54.1667Z" stroke="currentColor" stroke-width="6" stroke-linecap="round" stroke-linejoin="round"></path><path d="M65 97.5V75.8333" stroke="currentColor" stroke-width="6" stroke-linecap="round" stroke-linejoin="round"></path><path d="M65 54.1666V32.5" stroke="currentColor" stroke-width="6" stroke-linecap="round" stroke-linejoin="round"></path><path d="M32.5 65H54.1667" stroke="currentColor" stroke-width="6" stroke-linecap="round" stroke-linejoin="round"></path><path d="M75.8334 65H97.5" stroke="currentColor" stroke-width="6" stroke-linecap="round" stroke-linejoin="round"></path></svg> 