<svg xmlns="http://www.w3.org/2000/svg" xmlns:xlink="http://www.w3.org/1999/xlink" version="1.1" x="0px" y="0px" viewBox="0 0 100 125" style="enable-background:new 0 0 100 100;" xml:space="preserve"><g><path d="M94.968,38.936c-0.008-0.048-0.015-0.096-0.026-0.143c-0.017-0.074-0.042-0.145-0.067-0.217   c-0.016-0.046-0.03-0.092-0.05-0.136c-0.031-0.071-0.072-0.139-0.112-0.207c-0.023-0.038-0.042-0.079-0.067-0.116   c-0.004-0.005-0.006-0.011-0.01-0.017L78.412,14.992c-0.204-0.496-0.6-0.911-1.141-1.114c-0.243-0.091-0.492-0.128-0.737-0.124   c-0.012,0-0.022-0.004-0.034-0.004h-53c-0.031,0-0.061,0.01-0.092,0.011c-0.105,0.005-0.209,0.016-0.315,0.038   c-0.056,0.012-0.109,0.027-0.163,0.043c-0.045,0.013-0.09,0.019-0.134,0.035c-0.045,0.017-0.083,0.043-0.126,0.063   c-0.052,0.024-0.102,0.047-0.152,0.075c-0.09,0.051-0.172,0.109-0.251,0.171c-0.035,0.028-0.072,0.051-0.105,0.081   c-0.111,0.1-0.211,0.208-0.296,0.329c-0.001,0.001-0.002,0.002-0.003,0.004l-16.5,23.5c-0.004,0.005-0.006,0.011-0.01,0.017   c-0.025,0.037-0.044,0.077-0.067,0.116c-0.04,0.068-0.081,0.136-0.112,0.207c-0.02,0.044-0.033,0.091-0.05,0.136   c-0.026,0.072-0.05,0.143-0.067,0.217c-0.011,0.047-0.018,0.095-0.026,0.143c-0.013,0.079-0.021,0.157-0.024,0.237   C5.007,39.199,5,39.224,5,39.25c0,0.022,0.006,0.043,0.007,0.065c0.003,0.082,0.012,0.162,0.025,0.243   c0.007,0.045,0.012,0.09,0.021,0.133c0.019,0.085,0.047,0.167,0.078,0.25c0.012,0.033,0.02,0.068,0.034,0.101   c0.048,0.111,0.106,0.219,0.174,0.321c0.015,0.023,0.035,0.041,0.051,0.063c0.052,0.07,0.103,0.141,0.165,0.206l43,45   c0.098,0.103,0.207,0.193,0.323,0.272c0.015,0.01,0.033,0.017,0.048,0.026c0.133,0.085,0.277,0.151,0.426,0.202   c0.043,0.015,0.085,0.028,0.129,0.04c0.166,0.045,0.336,0.076,0.511,0.077c0.003,0,0.006,0.001,0.009,0.001   c0.011,0,0.022-0.003,0.033-0.003c0.011,0,0.022,0.003,0.033,0.003c0.037,0,0.071-0.014,0.107-0.016   c0.071-0.006,0.143-0.01,0.214-0.024c0.024-0.005,0.047-0.013,0.071-0.019c0.507-0.103,0.955-0.395,1.253-0.838l42.734-44.722   c0.062-0.065,0.113-0.135,0.165-0.206c0.016-0.022,0.036-0.041,0.051-0.063c0.069-0.102,0.126-0.21,0.174-0.321   c0.014-0.032,0.022-0.068,0.034-0.101c0.03-0.082,0.058-0.165,0.078-0.25c0.01-0.044,0.014-0.089,0.021-0.133   c0.013-0.081,0.022-0.161,0.025-0.243C94.994,39.293,95,39.272,95,39.25c0-0.026-0.007-0.051-0.008-0.077   C94.989,39.093,94.981,39.015,94.968,38.936z M22.96,19.999l6.483,17.251H10.848L22.96,19.999z M64.802,41.25L50.033,78.862   L35.265,41.25H64.802z M36.391,37.25L50.033,19.5l13.643,17.75H36.391z M53.734,17.75h19.945l-6.549,17.429L53.734,17.75z    M32.938,35.179L26.388,17.75h19.945L32.938,35.179z M30.968,41.25l13.455,34.268L11.677,41.25H30.968z M69.099,41.25h19.223   L55.691,75.399L69.099,41.25z M70.624,37.25l6.459-17.189L89.152,37.25H70.624z"/></g></svg>