<svg xmlns="http://www.w3.org/2000/svg" xmlns:xlink="http://www.w3.org/1999/xlink" version="1.1" x="0px" y="0px" viewBox="0 0 100 125" enable-background="new 0 0 100 100" xml:space="preserve"><g><g><path d="M23.919,83.146h13.041H50h13.041h13.041c0.829,0,1.5-0.672,1.5-1.5v-13.19v-13.19v-13.19c0-0.828-0.671-1.5-1.5-1.5    H63.041H50H36.959H23.919c-0.829,0-1.5,0.672-1.5,1.5v13.19v13.19v13.19C22.419,82.474,23.09,83.146,23.919,83.146z     M74.581,66.955H64.541v-10.19h10.041V66.955z M61.541,66.955H51.5v-10.19h10.041V66.955z M48.5,66.955H38.459v-10.19H48.5V66.955    z M35.459,66.955H25.419v-10.19h10.041V66.955z M25.419,69.955h10.041v10.19H25.419V69.955z M38.459,69.955H48.5v10.19H38.459    V69.955z M51.5,69.955h10.041v10.19H51.5V69.955z M74.581,80.146H64.541v-10.19h10.041V80.146z M74.581,53.765H64.541v-10.19    h10.041V53.765z M61.541,53.765H51.5v-10.19h10.041V53.765z M48.5,53.765H38.459v-10.19H48.5V53.765z M25.419,43.574h10.041v10.19    H25.419V43.574z"/><path d="M91.337,30.634V17.194c0-2.819-2.293-5.112-5.112-5.112h-4.266V9.514C81.959,7.024,79.935,5,77.446,5h-5.841    c-2.489,0-4.513,2.024-4.513,4.514v2.568H32.908V9.514C32.908,7.024,30.883,5,28.395,5h-5.841c-2.489,0-4.513,2.024-4.513,4.514    v2.568h-4.266c-2.819,0-5.112,2.293-5.112,5.112v13.439c-0.001,0.03-0.009,0.057-0.009,0.087v59.131    c0,2.839,2.31,5.148,5.148,5.148h72.396c2.838,0,5.148-2.31,5.148-5.148V30.721C91.346,30.691,91.339,30.663,91.337,30.634z     M71.092,9.514C71.092,9.23,71.322,9,71.605,9h5.841c0.283,0,0.513,0.23,0.513,0.514v9.138c0,0.283-0.23,0.514-0.513,0.514h-5.841    c-0.283,0-0.513-0.23-0.513-0.514V9.514z M22.041,9.514C22.041,9.23,22.271,9,22.554,9h5.841c0.283,0,0.513,0.23,0.513,0.514    v9.138c0,0.283-0.23,0.514-0.513,0.514h-5.841c-0.283,0-0.513-0.23-0.513-0.514V9.514z M12.663,17.194    c0-0.613,0.499-1.112,1.112-1.112h4.266v2.569c0,2.489,2.024,4.514,4.513,4.514h5.841c2.489,0,4.513-2.024,4.513-4.514v-2.569    h34.185v2.569c0,2.489,2.024,4.514,4.513,4.514h5.841c2.489,0,4.513-2.024,4.513-4.514v-2.569h4.266    c0.613,0,1.112,0.499,1.112,1.112v11.526H12.663V17.194z M87.346,89.852c0,0.633-0.515,1.148-1.148,1.148H13.802    c-0.633,0-1.148-0.516-1.148-1.148V32.721h74.692V89.852z"/></g></g></svg>