<svg xmlns="http://www.w3.org/2000/svg" xmlns:xlink="http://www.w3.org/1999/xlink" version="1.1" x="0px" y="0px" viewBox="0 0 100 125" style="enable-background:new 0 0 100 100;" xml:space="preserve"><path d="M91.209,33.211c-17.875-5.137-21.626-8.889-26.764-26.764C64.199,5.59,63.415,5,62.523,5s-1.676,0.59-1.922,1.448  c-5.137,17.875-8.889,21.626-26.763,26.764c-0.857,0.247-1.448,1.031-1.448,1.922s0.59,1.676,1.448,1.922  c17.874,5.137,21.626,8.889,26.763,26.763c0.247,0.857,1.031,1.448,1.922,1.448s1.676-0.59,1.922-1.448  c5.137-17.874,8.889-21.626,26.764-26.763c0.857-0.247,1.448-1.031,1.448-1.922S92.066,33.458,91.209,33.211z M62.523,56.588  c-4.259-12.236-9.218-17.195-21.455-21.455c12.236-4.259,17.195-9.219,21.455-21.455c4.259,12.236,9.219,17.196,21.455,21.455  C71.742,39.393,66.782,44.352,62.523,56.588z"/><path d="M8.791,75.824c11.84,3.403,14.325,5.888,17.728,17.728C26.766,94.41,27.55,95,28.441,95s1.676-0.59,1.922-1.448  c3.402-11.84,5.888-14.325,17.728-17.728c0.857-0.247,1.448-1.031,1.448-1.922s-0.59-1.676-1.448-1.922  c-11.84-3.402-14.325-5.888-17.728-17.728c-0.247-0.857-1.031-1.448-1.922-1.448s-1.676,0.59-1.922,1.448  c-3.403,11.84-5.888,14.325-17.728,17.728c-0.857,0.247-1.448,1.031-1.448,1.922S7.934,75.578,8.791,75.824z M28.441,61.213  c2.64,6.818,5.871,10.049,12.689,12.689c-6.818,2.64-10.049,5.872-12.689,12.689c-2.64-6.818-5.872-10.049-12.689-12.689  C22.57,71.262,25.801,68.031,28.441,61.213z"/></svg>