<?xml version="1.0" encoding="UTF-8"?> <svg xmlns="http://www.w3.org/2000/svg" width="113" height="105" viewBox="0 0 113 105" fill="none"><path d="M36.5412 33.1608C45.5812 33.1608 53.0965 25.6218 53.0965 16.6077C53.0965 7.53905 45.5812 0 36.5412 0C27.5012 0 19.986 7.53905 19.986 16.6077C19.986 25.5672 27.4468 33.1608 36.5412 33.1608ZM76.4587 33.1608C85.4986 33.1608 93.0683 25.6218 93.0683 16.6077C93.0683 7.53905 85.4986 0 76.4587 0C67.4188 0 59.9035 7.53905 59.9035 16.6077C59.9035 25.6218 67.4188 33.1608 76.4587 33.1608ZM16.5552 69.1077C25.6496 69.1077 33.1648 61.5686 33.1648 52.5C33.1648 43.4314 25.6496 35.8924 16.5552 35.8924C7.51519 35.8924 0 43.4314 0 52.5C0 61.5141 7.46073 69.1077 16.5552 69.1077ZM96.4448 69.1077C105.485 69.1077 113 61.5686 113 52.5C113 43.4314 105.485 35.8924 96.4448 35.8924C87.4049 35.8924 79.8353 43.4314 79.8353 52.5C79.8353 61.5686 87.4049 69.1077 96.4448 69.1077ZM36.5412 105C45.5812 105 53.0965 97.4609 53.0965 88.3923C53.0965 79.3236 45.5812 71.7845 36.5412 71.7845C27.5012 71.7845 19.986 79.3236 19.986 88.3923C19.986 97.4064 27.4468 105 36.5412 105ZM76.4587 105C85.4986 105 93.0683 97.4609 93.0683 88.3923C93.0683 79.3236 85.4986 71.7845 76.4587 71.7845C67.4188 71.7845 59.9035 79.3236 59.9035 88.3923C59.9035 97.4609 67.4188 105 76.4587 105Z" fill="currentColor"></path></svg> 