<svg xmlns="http://www.w3.org/2000/svg" xmlns:xlink="http://www.w3.org/1999/xlink" version="1.1" x="0px" y="0px" viewBox="0 0 100 125" style="enable-background:new 0 0 100 100;" xml:space="preserve"><path d="M5.066,50.755c0.762,10.599,8.81,19.296,19.745,19.712c9.927,0.378,18.493-5.901,24.272-13.458  c0.294-0.385,0.613-0.786,0.937-1.2c4.964,6.913,11.929,12.874,20.519,14.322c12.619,2.128,23.553-6.921,24.414-19.438  c0.037-0.215,0.054-0.445,0.045-0.692c0.01-0.272-0.016-0.52-0.063-0.754c-0.758-10.558-8.765-19.471-19.745-19.723  c-10.028-0.23-18.638,6.379-24.492,13.964c-0.216,0.28-0.461,0.579-0.712,0.886c-5.044-6.832-11.998-12.854-20.523-14.443  C16.799,27.57,5.906,36.805,5.047,49.309c-0.037,0.215-0.054,0.445-0.045,0.692C4.992,50.273,5.019,50.521,5.066,50.755z   M64.475,38.688c10.253-6.312,24.013-1.934,24.522,11.313c-0.511,13.281-14.689,17.718-24.931,11.291  c-4.329-2.717-8.088-6.784-10.715-11.247C56.131,45.549,60.036,41.421,64.475,38.688z M35.525,38.688  c4.441,2.734,8.344,6.861,11.123,11.357c-2.623,4.459-6.385,8.549-10.715,11.246c-10.247,6.384-24.418,2.027-24.931-11.291  C11.512,36.759,25.272,32.376,35.525,38.688z"/></svg>