<?xml version="1.0" encoding="UTF-8"?> <svg xmlns="http://www.w3.org/2000/svg" width="114" height="72" viewBox="0 0 114 72" fill="none"><path d="M57.0208 71.5371C90.7247 71.5371 114 44.2986 114 35.7894C114 27.2383 90.683 0.041748 57.0208 0.041748C23.7761 0.041748 0 27.2383 0 35.7894C0 44.2986 23.7344 71.5371 57.0208 71.5371ZM57.0208 64.9464C29.5324 64.9464 7.29968 41.6707 7.29968 35.7894C7.29968 30.8256 29.5324 6.63231 57.0208 6.63231C84.3842 6.63231 106.701 30.8256 106.701 35.7894C106.701 41.6707 84.3842 64.9464 57.0208 64.9464ZM57.0208 59.1483C69.9936 59.1483 80.4218 48.5116 80.4218 35.7894C80.4218 22.7333 69.9936 12.4304 57.0208 12.4304C43.9651 12.4304 33.5368 22.7333 33.5368 35.7894C33.5368 48.5116 43.9651 59.1483 57.0208 59.1483ZM57.0208 43.5479C52.6829 43.5479 49.179 40.044 49.179 35.7894C49.179 31.493 52.6829 28.0308 57.0208 28.0308C61.3174 28.0308 64.821 31.493 64.821 35.7894C64.821 40.044 61.3174 43.5479 57.0208 43.5479Z" fill="currentColor"></path></svg> 