<svg xmlns="http://www.w3.org/2000/svg" xmlns:xlink="http://www.w3.org/1999/xlink" version="1.1" x="0px" y="0px" viewBox="0 0 100 125" style="enable-background:new 0 0 100 100;" xml:space="preserve"><g><path d="M27.799,33.473c-4.136,0-7.5,3.364-7.5,7.5s3.364,7.5,7.5,7.5s7.5-3.364,7.5-7.5S31.935,33.473,27.799,33.473z    M27.799,44.473c-1.93,0-3.5-1.57-3.5-3.5s1.57-3.5,3.5-3.5s3.5,1.57,3.5,3.5S29.729,44.473,27.799,44.473z"/><path d="M50,33.473c-4.136,0-7.5,3.364-7.5,7.5s3.364,7.5,7.5,7.5s7.5-3.364,7.5-7.5S54.136,33.473,50,33.473z M50,44.473   c-1.93,0-3.5-1.57-3.5-3.5s1.57-3.5,3.5-3.5s3.5,1.57,3.5,3.5S51.93,44.473,50,44.473z"/><path d="M72.201,33.473c-4.136,0-7.5,3.364-7.5,7.5s3.364,7.5,7.5,7.5s7.5-3.364,7.5-7.5S76.337,33.473,72.201,33.473z    M72.201,44.473c-1.93,0-3.5-1.57-3.5-3.5s1.57-3.5,3.5-3.5s3.5,1.57,3.5,3.5S74.131,44.473,72.201,44.473z"/><path d="M74.315,7.491H25.685C14.279,7.491,5,16.77,5,28.175v25.595c0,10.731,8.214,19.58,18.685,20.589v16.15   c0,0.773,0.446,1.478,1.145,1.808c0.272,0.129,0.564,0.192,0.854,0.192c0.455,0,0.904-0.155,1.269-0.454l21.448-17.6h25.914   C85.721,74.455,95,65.176,95,53.771V28.175C95,16.77,85.721,7.491,74.315,7.491z M91,53.771c0,9.2-7.485,16.685-16.685,16.685   H47.686c-0.463,0-0.911,0.161-1.269,0.454L27.685,86.281V72.455c0-1.104-0.896-2-2-2C16.485,70.455,9,62.97,9,53.771V28.175   c0-9.2,7.485-16.685,16.685-16.685h48.631c9.2,0,16.685,7.485,16.685,16.685V53.771z"/></g></svg>