<?xml version="1.0" encoding="UTF-8"?> <svg xmlns="http://www.w3.org/2000/svg" width="142" height="142" viewBox="0 0 142 142" fill="none"><path d="M71 60.1962C81.4488 43.7242 90.6138 35.5 98.5007 35.5C110.334 35.5 117.807 48.5936 122.167 66.3672C126.333 83.3422 125.126 106.5 110.334 106.5C103.743 106.5 94.6667 97.2404 85.7917 84.8923C80.1444 77.1113 75.1947 68.8472 71 60.1962Z" stroke="currentColor" stroke-width="10" stroke-linecap="round" stroke-linejoin="round"></path><path d="M70.9978 60.1962C60.549 43.7242 51.384 35.5 43.4971 35.5C31.6638 35.5 24.191 48.5936 19.8305 66.3672C15.6651 83.3422 16.8721 106.5 31.6638 106.5C38.255 106.5 47.3311 97.2404 56.2061 84.8923C62.1228 76.6622 67.0514 68.4262 70.9978 60.1962Z" stroke="currentColor" stroke-width="10" stroke-linecap="round" stroke-linejoin="round"></path></svg> 