<svg xmlns="http://www.w3.org/2000/svg" data-name="Layer 1" viewBox="0 0 128 160" x="0px" y="0px"><path d="M120.94508,79.71685a5.62363,5.62363,0,0,0-4.00334-1.6553h-.00568a5.6244,5.6244,0,0,0-4.00646,1.6642l-4.28471,4.3043c-.06956.057-.136.11665-.201.18165l-7.13763,7.16968a3.12575,3.12575,0,0,0-.2767.24487l-7.01385,7.045L87.01319,91.6681a5.75017,5.75017,0,0,0-8.1093,0l-.06433.065a5.66935,5.66935,0,0,0,.009,8.01469l11.2555,11.20508,1.53108,1.53063a3.37914,3.37914,0,0,0,4.78079-.00089L121.0182,87.88113a5.7344,5.7344,0,0,0-.01235-8.10284Z"/><path d="M28.06344,6.22761a26.00435,26.00435,0,1,0,25.9941,26.01458A26.0286,26.0286,0,0,0,28.06344,6.22761Zm0,43.59686A17.59252,17.59252,0,1,1,45.64528,32.24219,17.601,17.601,0,0,1,28.06344,49.82447Z"/><path d="M99.93667,58.2363A26.00435,26.00435,0,1,0,73.94246,32.24219,26.02422,26.02422,0,0,0,99.93667,58.2363Zm0-43.59687a17.59252,17.59252,0,1,1-17.582,17.60276A17.60537,17.60537,0,0,1,99.93667,14.63943Z"/><path d="M28.06344,69.76281a26.00479,26.00479,0,1,0,25.9941,26.01548A26.02936,26.02936,0,0,0,28.06344,69.76281Zm0,43.59687A17.59208,17.59208,0,1,1,45.64528,95.77829,17.60084,17.60084,0,0,1,28.06344,113.35968Z"/></svg>