<svg width="128" height="180" xmlns="http://www.w3.org/2000/svg" version="1.1">
 <g>
  <title>Слой 1</title>
  <path stroke="null" d="m63.99924,29.00032c15.40854,0 29.43741,2.05024 39.66957,5.36636c11.2617,3.64869 18.22969,9.02496 18.22969,15.27035l0,80.72725c0,6.24005 -6.96784,11.62115 -18.22969,15.27035c-22.07618,7.1534 -57.26295,7.1534 -79.33761,0c-11.2617,-3.64869 -18.22969,-9.02496 -18.22969,-15.27035l0,-80.72725c0,-6.24005 6.96784,-11.62115 18.22969,-15.27035c10.23094,-3.31612 24.26102,-5.36636 39.66957,-5.36636l-0.00151,0l-0.00001,0zm50.66618,57.85222c-21.33281,13.75044 -79.99201,13.75044 -101.32482,0l0,16.60473c0,3.47002 5.18317,6.88538 13.56461,9.60078c20.32106,6.58254 53.87033,6.58254 74.18987,0c8.38143,-2.71539 13.56461,-6.13076 13.56461,-9.60078l0,-16.60473l0.00572,0zm0,26.90612c-21.33281,13.75044 -79.99201,13.75044 -101.32482,0l0,16.60473c0,3.47002 5.18317,6.88538 13.56461,9.60078c20.32106,6.58254 53.87033,6.58254 74.18987,0c8.38143,-2.71539 13.56461,-6.13076 13.56461,-9.60078l0,-16.60473l0.00572,0zm0,-53.81732c-21.33281,13.75044 -79.99201,13.75044 -101.32482,0l0,16.60473c0,3.47002 5.18317,6.88538 13.56461,9.60078c20.32106,6.58254 53.87033,6.58254 74.18987,0c8.38143,-2.71539 13.56461,-6.13076 13.56461,-9.60078l0,-16.60473l0.00572,0zm-13.57049,-19.90636c-20.32106,-6.58254 -53.87033,-6.58254 -74.18987,0c-18.05328,5.84787 -18.05931,13.34885 0,19.20105c20.32558,6.58254 53.87033,6.58254 74.18987,0c18.05931,-5.84787 18.05931,-13.35393 0,-19.20105z" fill-rule="evenodd" id="svg_1"/>
 </g>

</svg>